<svg width="128" height="128" viewBox="0 0 128 128" fill="none" xmlns="http://www.w3.org/2000/svg">
<g clip-path="url(#clip0_1_392)">
<rect width="128" height="128" fill="#F27321"/>
<g clip-path="url(#clip1_1_392)">
<mask id="mask0_1_392" style="mask-type:luminance" maskUnits="userSpaceOnUse" x="-5" y="51" width="138" height="25">
<path d="M133 51H-5V76H133V51Z" fill="white"/>
</mask>
<g mask="url(#mask0_1_392)">
<mask id="mask1_1_392" style="mask-type:luminance" maskUnits="userSpaceOnUse" x="-5" y="-6" width="138" height="138">
<path d="M-4.24176 -5.06061H132.242V131.303H-4.24176V-5.06061Z" fill="white"/>
</mask>
<g mask="url(#mask1_1_392)">
<mask id="mask2_1_392" style="mask-type:luminance" maskUnits="userSpaceOnUse" x="-88" y="-23" width="304" height="172">
<path d="M-87.4904 -22.0173H215.49V148.26H-87.4904V-22.0173Z" fill="white"/>
</mask>
<g mask="url(#mask2_1_392)">
<path d="M106.289 59.0083H106.093V55.6461L101.29 55.6461V74.6434L106.419 74.6434V60.1833L110.921 60.1833L110.921 55.3528L110.301 55.3528C107.92 55.3528 106.876 56.401 106.289 59.0083Z" fill="white"/>
<mask id="mask3_1_392" style="mask-type:alpha" maskUnits="userSpaceOnUse" x="78" y="53" width="23" height="24">
<g opacity="0.5">
<path d="M96.4358 67.3432C96.4358 67.3432 96.4143 64.4026 96.4143 62.808C96.4143 59.8145 92.6697 57.2193 89.2558 57.2193C84.9615 57.2192 82.0039 60.5571 82.0039 64.8476C82.0039 69.138 84.9615 72.7565 89.2557 72.7565C93.2087 72.7565 96.1969 70.6389 96.6469 66.9556" stroke="#FF00FF" stroke-width="7.70655" stroke-miterlimit="10"/>
</g>
</mask>
<g mask="url(#mask3_1_392)">
<g opacity="0.5">
<path d="M89.3656 55.3523C83.2237 55.3523 79.3687 59.8243 79.3687 65.3079C79.3687 70.7916 83.3544 74.9697 89.235 74.9697C94.2662 74.9697 97.9578 71.9014 99.036 67.8865L93.8741 67.8865C93.5146 69.4859 91.7506 70.7916 89.3003 70.7916C86.5679 70.7916 84.792 68.914 84.5323 66.0913L99.036 66.0913L99.036 64.6551C99.036 59.3346 95.1483 55.3523 89.3656 55.3523ZM84.674 62.5986C85.4293 60.4343 87.268 59.3345 89.3656 59.3345C91.7598 59.3346 93.3051 60.6904 94.0384 62.5987L84.674 62.5986Z" fill="white"/>
</g>
</g>
<g opacity="0.5">
<path d="M98.7136 66.1405L98.7093 62.6024L79.9459 62.5986L79.9502 66.1366L98.7136 66.1405Z" fill="white"/>
</g>
<path d="M89.3656 55.3524C83.2237 55.3523 79.3687 59.8243 79.3687 65.308C79.3687 70.7916 83.3544 74.9697 89.235 74.9697C94.2662 74.9697 97.9578 71.9015 99.036 67.8865L93.8741 67.8865C93.5146 69.4859 91.7506 70.7917 89.3003 70.7916C86.5679 70.7916 84.792 68.914 84.5323 66.0913L99.036 66.0913L99.036 64.6551C99.036 59.3346 95.1483 55.3524 89.3656 55.3524ZM84.674 62.5987C85.4293 60.4343 87.268 59.3346 89.3656 59.3346C91.7598 59.3346 93.3051 60.6904 94.0384 62.5987L84.674 62.5987Z" fill="white"/>
<path d="M74.8602 70.4652H78.7479V74.6432H75.5137C72.116 74.6432 70.025 73.4682 70.025 69.1596V59.8241H67.7137C67.3084 59.8241 67.0972 59.3422 67.3718 59.0445L74.0532 51.4724C74.3402 51.1613 74.8602 51.3641 74.8602 51.7873V55.6461H78.7152V59.8241H74.8602V70.4652Z" fill="white"/>
<path d="M61.0081 55.3522C58.6886 55.3522 56.9571 56.6905 56.1077 58.7796H55.9442V55.6459H51.3378V74.6432H56.1729V59.9221H59.4074C60.8121 59.9221 61.3349 60.2158 61.3349 61.7173V74.6432H66.17V60.7706C66.17 56.9515 64.3406 55.3522 61.0081 55.3522Z" fill="white"/>
<path d="M42.9743 74.6432H47.8093V55.6461H42.9743V74.6432Z" fill="white"/>
<mask id="mask4_1_392" style="mask-type:alpha" maskUnits="userSpaceOnUse" x="17" y="54" width="21" height="21">
<path d="M37.2768 54.7867C26.2919 54.7867 17.3871 63.6836 17.3871 74.6589H37.2768V54.7867Z" fill="black"/>
</mask>
<g mask="url(#mask4_1_392)">
<mask id="mask5_1_392" style="mask-type:luminance" maskUnits="userSpaceOnUse" x="-57" y="-23" width="304" height="172">
<path d="M-56.9177 -22.0173H246.063V148.26H-56.9177V-22.0173Z" fill="white"/>
</mask>
<g mask="url(#mask5_1_392)">
<path d="M17.6369 74.2126L37.277 74.2126" stroke="white" stroke-width="1.2487" stroke-miterlimit="10"/>
<path d="M17.9173 70.9373L34.9991 74.6197" stroke="white" stroke-width="1.45681" stroke-miterlimit="10"/>
<path d="M18.8246 67.5321L34.9991 74.6197" stroke="white" stroke-width="1.87305" stroke-miterlimit="10"/>
<path d="M20.6867 63.7995L34.9991 74.6197" stroke="white" stroke-width="2.28928" stroke-miterlimit="10"/>
<path d="M23.9158 60.1912L35.4705 74.6197" stroke="white" stroke-width="3.12175" stroke-miterlimit="10"/>
<path d="M28.7685 57.1786L35.4704 74.6196" stroke="white" stroke-width="3.32986" stroke-miterlimit="10"/>
<path d="M35.4704 55.6212L35.4704 74.6197" stroke="white" stroke-width="4.78668" stroke-miterlimit="10"/>
<path d="M27.5792 73.8055L27.6333 73.5338L27.8235 72.5297L27.9051 72.1499L28.3396 70.9285L28.5298 70.657L29.3176 69.3272L29.5621 69.0015L31.0834 67.3459L31.3549 67.1016L33.3923 65.9617L33.6641 65.8804L37.2769 65.8804L37.277 74.6197L27.5792 74.6197L27.5792 73.8055Z" fill="white"/>
</g>
</g>
</g>
</g>
</g>
</g>
</g>
<defs>
<clipPath id="clip0_1_392">
<rect width="128" height="128" fill="white"/>
</clipPath>
<clipPath id="clip1_1_392">
<rect width="138" height="25" fill="white" transform="translate(-5 51)"/>
</clipPath>
</defs>
</svg>
